<?xml version="1.0" encoding="utf-8"?>
<!-- Generator: Adobe Illustrator 16.0.0, SVG Export Plug-In . SVG Version: 6.00 Build 0)  -->
<!DOCTYPE svg PUBLIC "-//W3C//DTD SVG 1.1//EN" "http://www.w3.org/Graphics/SVG/1.1/DTD/svg11.dtd">
<svg version="1.1" xmlns="http://www.w3.org/2000/svg" xmlns:xlink="http://www.w3.org/1999/xlink" x="0px" y="0px" width="64px"
	 height="32px" viewBox="0 0 64 32" enable-background="new 0 0 64 32" xml:space="preserve">
<g id="BatteryLow" display="none">
	<g display="inline">
		<g>
			<path class="battery-body" d="M57.299,30.798H3V1.202h54.299V30.798z M6.354,27.443h47.589V4.556H6.354V27.443z"/>
		</g>
		<rect class="battery-terminal" x="57.162" y="11.556" width="3.848" height="8.887"/>
		<rect class="battery-level" x="9.837" y="7.594" width="13.109" height="17.02"/>
	</g>
</g>
<g id="BatteryMed" display="none">
	<g display="inline">
		<g>
			<path class="battery-body" d="M57.299,30.798H3V1.202h54.299V30.798z M6.354,27.443h47.589V4.556H6.354V27.443z"/>
		</g>
		<rect class="battery-terminal" x="57.162" y="11.556" width="3.848" height="8.887"/>
		<rect class="battery-level" x="9.837" y="7.594" width="26.218" height="17.02"/>
	</g>
</g>
<g id="BatteryHigh">
	<g>
		<g>
			<path class="battery-body" d="M57.299,30.798H3V1.202h54.299V30.798z M6.354,27.443h47.589V4.556H6.354V27.443z"/>
		</g>
		<rect class="battery-terminal" x="57.162" y="11.556" width="3.848" height="8.887"/>
		<rect class="battery-level" x="9.837" y="7.594" width="40.361" height="17.02"/>
	</g>
</g>
</svg>
