<?xml version="1.0" encoding="UTF-8" standalone="no"?>
<svg width="153px" height="349px" viewBox="0 0 153 349" version="1.1" xmlns="http://www.w3.org/2000/svg" xmlns:xlink="http://www.w3.org/1999/xlink">
    <!-- Generator: Sketch 49.2 (51160) - http://www.bohemiancoding.com/sketch -->
    <title>Meter</title>
    <desc>Created with Sketch.</desc>
    <defs>
        <polygon id="path-1" points="0 0.9971 133.002 0.9971 133.002 134 0 134"></polygon>
        <polygon id="path-3" points="0 326.669 133.002 326.669 133.002 0 0 0"></polygon>
    </defs>
    <g id="Meter" stroke="none" stroke-width="1" fill="none" fill-rule="evenodd">
        <g id="Page-1" transform="translate(9.000000, 13.000000)">
            <path d="M109.5,260.167 C109.5,283.915 90.248,303.166 66.5,303.166 C42.753,303.166 23.501,283.915 23.501,260.167 C23.501,236.42 42.753,217.168 66.5,217.168 C90.248,217.168 109.5,236.42 109.5,260.167" id="Fill-1" fill="#231F20"></path>
            <path d="M66.501,209.6661 C38.655,209.6661 16,232.3201 16,260.1671 C16,288.0141 38.655,310.6681 66.501,310.6681 C94.347,310.6681 117.001,288.0141 117.001,260.1671 C117.001,232.3201 94.347,209.6661 66.501,209.6661 M66.501,313.6681 C37.001,313.6681 13,289.6681 13,260.1671 C13,230.6661 37.001,206.6661 66.501,206.6661 C96.001,206.6661 120.001,230.6661 120.001,260.1671 C120.001,289.6681 96.001,313.6681 66.501,313.6681" id="Fill-3" fill="#231F20"></path>
            <g id="Group-7" transform="translate(0.000000, 192.669000)">
                <mask id="mask-2" fill="white">
                    <use xlink:href="#path-1"></use>
                </mask>
                <g id="Clip-6"></g>
                <path d="M66.501,1.9971 C30.384,1.9971 1,31.3811 1,67.4981 C1,103.6161 30.384,133.0001 66.501,133.0001 C102.618,133.0001 132.002,103.6161 132.002,67.4981 C132.002,31.3811 102.618,1.9971 66.501,1.9971 M66.501,134.0001 C29.832,134.0001 0,104.1671 0,67.4981 C0,30.8291 29.832,0.9971 66.501,0.9971 C103.17,0.9971 133.002,30.8291 133.002,67.4981 C133.002,104.1671 103.17,134.0001 66.501,134.0001" id="Fill-5" fill="#231F20" mask="url(#mask-2)"></path>
            </g>
            <mask id="mask-4" fill="white">
                <use xlink:href="#path-3"></use>
            </mask>
            <g id="Clip-9"></g>
            <polygon id="Fill-8" fill="#231F20" mask="url(#mask-4)" points="65.001 260.168 68.001 260.168 68.001 24.5 65.001 24.5"></polygon>
            <path d="M66.5005,2.9996 C61.4465,2.9996 57.3335,7.1116 57.3335,12.1666 C57.3335,17.2206 61.4465,21.3326 66.5005,21.3326 C71.5545,21.3326 75.6675,17.2206 75.6675,12.1666 C75.6675,7.1116 71.5545,2.9996 66.5005,2.9996 M66.5005,24.3326 C59.7925,24.3326 54.3335,18.8746 54.3335,12.1666 C54.3335,5.4576 59.7925,-0.0004 66.5005,-0.0004 C73.2085,-0.0004 78.6675,5.4576 78.6675,12.1666 C78.6675,18.8746 73.2085,24.3326 66.5005,24.3326" id="Fill-10" fill="#231F20" mask="url(#mask-4)"></path>
        </g>
    </g>
</svg>