<?xml version="1.0" encoding="UTF-8" standalone="no"?>
<svg width="55px" height="61px" viewBox="0 0 55 61" version="1.1" xmlns="http://www.w3.org/2000/svg" xmlns:xlink="http://www.w3.org/1999/xlink">
    <defs>
        <linearGradient x1="0.182921309%" y1="18.9583092%" x2="67.0800174%" y2="18.9583092%" id="linearGradient-1">
            <stop stop-color="#AFAFAF" offset="0.0791807432%"></stop>
            <stop stop-color="#7E7E7E" offset="100%"></stop>
        </linearGradient>
    </defs>
    <g id="Artboard" stroke="none" stroke-width="1" fill="none" fill-rule="evenodd">
        <path class="head" d="M44.7298689,25.9743469 C44.4607417,26.9787434 43.2611534,28.1439222 43.2611534,28.1439222 C43.2611534,28.1439222 43.1048062,28.9222264 43.4893176,30.4093388 C43.873829,31.8964512 45.3861703,33.0706168 45.0017028,34.5054689 C44.565973,36.1316347 42.1462416,35.226958 41.9027456,36.1356977 C41.6592495,37.0444374 42.8947537,37.888113 42.7409667,38.4620539 C42.5231018,39.2751367 41.1696972,39.0662801 41.0287258,39.5923925 C40.9390167,39.9271913 41.7285064,40.2925215 41.587535,40.8186339 C41.3696701,41.6317168 39.9034854,41.6489524 39.7368829,42.2707217 C39.5702803,42.892491 39.8112308,43.1621028 39.5933659,43.9751857 C39.1960829,45.4578662 37.0326924,45.5445978 34.4027767,44.839914 C31.7728611,44.1352302 30.0016333,43.1480079 30.0016333,43.1480079 C27.6947113,43.9652152 24.8674854,47.3086487 23.3039844,53.1437141 C23.3039844,53.1437141 21.6301756,53.1565793 20.4613242,52.8433865 C13.2534071,50.912031 18.1542118,40.9987474 9.48523039,38.6759009 C11.0949466,37.9281894 14.1656979,35.6239926 14.5245342,34.2847973 C16.280269,27.7323059 10.38216,24.6140424 12.1122637,18.1572078 C13.8423673,11.7003732 19.655741,5.00482688 31.4416595,8.16285422 C43.6171952,11.4252792 46.1523986,20.6653939 44.7298689,25.9743469 Z" id="Path-Copy-2" fill="#D8D8D8"></path>
        <path class="headset" d="M26.3430356,32.0400238 C25.3304953,32.20171 21.6587976,28.6669796 21.1399882,27.8679088 C20.7941152,27.335195 21.0891611,25.3871253 22.0251259,22.0236999 C22.5976542,20.4972508 25.0496472,19.8343364 29.3811048,20.0349568 C33.7125625,20.2355771 38.8717335,20.3777468 44.8586179,20.461466 L45.1177291,22.6288979 C38.8761101,23.2330495 34.6078848,23.844234 32.313053,24.4624514 C28.8708053,25.3897776 28.1794411,28.2300443 27.9659961,29.9866712 C27.7525511,31.743298 27.3555758,31.8783376 26.3430356,32.0400238 Z" id="Combined-Shape" fill="url(#linearGradient-1)"></path>
    </g>
</svg>