<?xml version="1.0" encoding="utf-8"?>
<!-- Generator: Adobe Illustrator 16.0.0, SVG Export Plug-In . SVG Version: 6.00 Build 0)  -->
<!DOCTYPE svg PUBLIC "-//W3C//DTD SVG 1.1//EN" "http://www.w3.org/Graphics/SVG/1.1/DTD/svg11.dtd">
<svg version="1.1" id="Layer_1" xmlns="http://www.w3.org/2000/svg" xmlns:xlink="http://www.w3.org/1999/xlink" x="0px" y="0px"
	 width="109.807px" height="128.481px" viewBox="0 0 109.807 128.481" enable-background="new 0 0 109.807 128.481"
	 xml:space="preserve">
<g>
	<defs>
		<path id="SVGID_1_" d="M53.105,43.265c-19.786,0-35.615,15.467-35.615,34.8c0,19.333,15.829,34.8,35.615,34.8
			c19.786,0,35.615-15.467,35.615-34.8C88.72,58.732,72.891,43.265,53.105,43.265z M53.105,122.532
			c-25.227,0-45.508-19.817-45.508-44.467s20.281-44.466,45.508-44.466c25.228,0,45.508,19.816,45.508,44.466
			S78.333,122.532,53.105,122.532z"/>
	</defs>
	<clipPath id="SVGID_2_">
		<use xlink:href="#SVGID_1_"  overflow="visible"/>
	</clipPath>
	<g clip-path="url(#SVGID_2_)">
		<defs>
			<rect id="SVGID_3_" x="-866.443" y="-417.468" width="2048" height="1152"/>
		</defs>
		<clipPath id="SVGID_4_">
			<use xlink:href="#SVGID_3_"  overflow="visible"/>
		</clipPath>
		<rect x="-2.403" y="23.599" clip-path="url(#SVGID_4_)" fill="#7F7F7F" width="111.016" height="108.933"/>
	</g>
</g>
<g>
	<defs>
		<path id="SVGID_5_" d="M53.105,43.265c-2.968,0-4.946-1.934-4.946-4.833V24.898c0-2.9,1.979-4.833,4.946-4.833
			c2.968,0,4.947,1.934,4.947,4.833v13.533C58.052,40.849,55.579,43.265,53.105,43.265z"/>
	</defs>
	<clipPath id="SVGID_6_">
		<use xlink:href="#SVGID_5_"  overflow="visible"/>
	</clipPath>
	<g clip-path="url(#SVGID_6_)">
		<defs>
			<rect id="SVGID_7_" x="-866.443" y="-417.468" width="2048" height="1152"/>
		</defs>
		<clipPath id="SVGID_8_">
			<use xlink:href="#SVGID_7_"  overflow="visible"/>
		</clipPath>
		<rect x="38.159" y="10.065" clip-path="url(#SVGID_8_)" fill="#7F7F7F" width="29.893" height="43.2"/>
	</g>
</g>
<g>
	<defs>
		<path id="SVGID_9_" d="M72.891,33.115c-2.968,0-4.946-1.934-4.946-4.833v-7.25c0-2.417-3.462-4.833-7.42-4.833H45.686
			c-3.958,0-7.42,2.417-7.42,4.833v6.767c0,2.9-1.979,4.833-4.946,4.833c-2.968,0-4.947-1.934-4.947-4.833v-6.767
			c0-8.217,7.915-14.5,17.313-14.5h14.839c9.398,0,17.313,6.767,17.313,14.5v6.767C77.838,30.698,75.365,33.115,72.891,33.115z"/>
	</defs>
	<clipPath id="SVGID_10_">
		<use xlink:href="#SVGID_9_"  overflow="visible"/>
	</clipPath>
	<g clip-path="url(#SVGID_10_)">
		<defs>
			<rect id="SVGID_11_" x="-866.443" y="-417.468" width="2048" height="1152"/>
		</defs>
		<clipPath id="SVGID_12_">
			<use xlink:href="#SVGID_11_"  overflow="visible"/>
		</clipPath>
		<rect x="18.373" y="-3.468" clip-path="url(#SVGID_12_)" fill="#7F7F7F" width="69.465" height="46.583"/>
	</g>
</g>
<g>
	<defs>
		<path id="SVGID_13_" d="M53.105,102.715c-2.968,0-4.946-1.933-4.946-4.833V78.065c0-1.45,0.495-2.417,1.484-3.383l10.882-10.633
			c1.979-1.933,4.947-1.933,6.925,0c1.979,1.934,1.979,4.833,0,6.767l-9.398,9.184v17.883
			C58.052,100.782,55.579,102.715,53.105,102.715z"/>
	</defs>
	<clipPath id="SVGID_14_">
		<use xlink:href="#SVGID_13_"  overflow="visible"/>
	</clipPath>
	<g clip-path="url(#SVGID_14_)">
		<defs>
			<rect id="SVGID_15_" x="-866.443" y="-417.468" width="2048" height="1152"/>
		</defs>
		<clipPath id="SVGID_16_">
			<use xlink:href="#SVGID_15_"  overflow="visible"/>
		</clipPath>
		<rect x="38.159" y="52.599" clip-path="url(#SVGID_16_)" fill="#7F7F7F" width="40.775" height="60.116"/>
	</g>
</g>
<g>
	<defs>
		<path id="SVGID_17_" d="M86.247,59.698c-1.484,0-2.473-0.483-3.462-1.45c-1.979-1.934-1.979-4.833,0-6.767l11.871-11.6
			c1.979-1.934,4.947-1.934,6.925,0c1.979,1.933,1.979,4.833,0,6.767l-11.872,11.6C88.72,59.215,87.236,59.698,86.247,59.698z"/>
	</defs>
	<clipPath id="SVGID_18_">
		<use xlink:href="#SVGID_17_"  overflow="visible"/>
	</clipPath>
	<g clip-path="url(#SVGID_18_)">
		<defs>
			<rect id="SVGID_19_" x="-866.443" y="-417.468" width="2048" height="1152"/>
		</defs>
		<clipPath id="SVGID_20_">
			<use xlink:href="#SVGID_19_"  overflow="visible"/>
		</clipPath>
		<rect x="71.3" y="28.432" clip-path="url(#SVGID_20_)" fill="#7F7F7F" width="41.765" height="41.267"/>
	</g>
</g>
<g>
	<defs>
		<path id="SVGID_21_" d="M102.571,52.448c-1.484,0-2.474-0.483-3.463-1.45l-9.398-9.184c-1.979-1.933-1.979-4.833,0-6.767
			c1.979-1.933,4.946-1.933,6.925,0l9.398,9.184c1.979,1.933,1.979,4.833,0,6.767C105.539,51.965,104.054,52.448,102.571,52.448z"/>
	</defs>
	<clipPath id="SVGID_22_">
		<use xlink:href="#SVGID_21_"  overflow="visible"/>
	</clipPath>
	<g clip-path="url(#SVGID_22_)">
		<defs>
			<rect id="SVGID_23_" x="-866.443" y="-417.468" width="2048" height="1152"/>
		</defs>
		<clipPath id="SVGID_24_">
			<use xlink:href="#SVGID_23_"  overflow="visible"/>
		</clipPath>
		<rect x="78.226" y="23.599" clip-path="url(#SVGID_24_)" fill="#7F7F7F" width="39.292" height="38.85"/>
	</g>
</g>
</svg>
